<?xml version="1.0" encoding="UTF-8" standalone="no"?>
<svg width="74px" height="80px" viewBox="0 0 74 80" version="1.1" xmlns="http://www.w3.org/2000/svg" xmlns:xlink="http://www.w3.org/1999/xlink">
    <!-- Generator: Sketch 40.3 (33839) - http://www.bohemiancoding.com/sketch -->
    <title>Page 1</title>
    <desc>Created with Sketch.</desc>
    <defs></defs>
    <g id="Page-1" stroke="none" stroke-width="1" fill="none" fill-rule="evenodd">
        <g id="Artboard" transform="translate(-100.000000, -128.000000)">
            <g id="Page-1" transform="translate(100.000000, 128.000000)">
                <path d="M10.9939469,80 C9.89727613,80 9,79.0915919 9,77.9813154 L9,39.0186846 C9,37.9084081 9.89727613,37 10.9939469,37 L63.0060531,37 C64.1027239,37 65,37.9084081 65,39.0186846 L65,77.9813154 C65,79.0915919 64.1027239,80 63.0060531,80 L10.9939469,80 Z" id="Fill-1" fill="#F0F0F0"></path>
                <path d="M70,4 L72,4 L70,4 Z M4,4 L4,50.9262027 L42.216,50.9262027 C44.045,50.9262027 46.035,52.0736158 46.948,53.6540527 L50.042,59 L53.137,53.6530549 C54.05,52.0736158 56.04,50.9262027 57.869,50.9262027 L70,50.9262027 L70,4.0059865 L4,4 Z M50.042,64 C48.935,64 47.939,63.3770318 47.31,62.2898325 L43.483,55.6727919 C43.29,55.3373475 42.603,54.941004 42.216,54.941004 L4,54.941004 C1.794,54.941004 0,53.1499704 0,50.947618 L0,3.99338595 C0,1.7910336 1.794,-1.42108547e-14 4,-1.42108547e-14 L70,-1.42108547e-14 C72.206,-1.42108547e-14 74,1.7910336 74,3.99338595 L74,50.947618 C74,53.1499704 72.206,54.941004 70,54.941004 L57.869,54.941004 C57.482,54.941004 56.795,55.3373475 56.602,55.6717936 L52.774,62.2898325 C52.145,63.3770318 51.149,64 50.042,64 L50.042,64 Z" id="Fill-3" fill="#626062"></path>
                <path d="M13.5079893,23 C13.2326591,23 13,23.2240948 13,23.48929 L13,31.51071 C13,31.7768838 13.2326591,32 13.5079893,32 L23.4920107,32 C23.7683569,32 24,31.7768838 24,31.51071 L24,23.48929 C24,23.2240948 23.7683569,23 23.4920107,23 L13.5079893,23 Z M23.4640162,35 L13.5359838,35 C11.5861413,35 10,33.450352 10,31.5453708 L10,23.4546292 C10,21.549648 11.5861413,20 13.5359838,20 L23.4640162,20 C25.4138587,20 27,21.549648 27,23.4546292 L27,31.5453708 C27,33.450352 25.4138587,35 23.4640162,35 L23.4640162,35 Z" id="Fill-5" fill="#626062"></path>
                <path d="M62.502745,24 L41.497255,24 C40.6707703,24 40,23.328 40,22.5 C40,21.672 40.6707703,21 41.497255,21 L62.502745,21 C63.3292297,21 64,21.672 64,22.5 C64,23.328 63.3292297,24 62.502745,24" id="Fill-7" fill="#F9B625"></path>
                <path d="M62.502745,35 L41.497255,35 C40.6707703,35 40,34.328 40,33.5 C40,32.672 40.6707703,32 41.497255,32 L62.502745,32 C63.3292297,32 64,32.672 64,33.5 C64,34.328 63.3292297,35 62.502745,35" id="Fill-9" fill="#F9B625"></path>
            </g>
        </g>
    </g>
</svg>