<?xml version="1.0" encoding="UTF-8" standalone="no"?>
<svg width="61px" height="79px" viewBox="0 0 61 79" version="1.1" xmlns="http://www.w3.org/2000/svg" xmlns:xlink="http://www.w3.org/1999/xlink">
    <!-- Generator: Sketch 40.3 (33839) - http://www.bohemiancoding.com/sketch -->
    <title>Page 1</title>
    <desc>Created with Sketch.</desc>
    <defs>
        <polygon id="path-1" points="30.5 -2.84217094e-14 0 -2.84217094e-14 0 72 61 72 61 -2.84217094e-14"></polygon>
    </defs>
    <g id="Page-1" stroke="none" stroke-width="1" fill="none" fill-rule="evenodd">
        <g id="Artboard" transform="translate(-649.000000, -129.000000)">
            <g id="Page-1" transform="translate(649.000000, 128.000000)">
                <path d="M3.99394695,80 C2.89727613,80 2,79.0955613 2,77.9901362 L2,17.0098638 C2,15.9044387 2.89727613,15 3.99394695,15 L56.0060531,15 C57.1027239,15 58,15.9044387 58,17.0098638 L58,77.9901362 C58,79.0955613 57.1027239,80 56.0060531,80 L3.99394695,80 Z" id="Fill-1" fill="#F0F0F0"></path>
                <g id="Group-5" transform="translate(0.000000, 1.000000)">
                    <mask id="mask-2" fill="white">
                        <use xlink:href="#path-1"></use>
                    </mask>
                    <g id="Clip-4"></g>
                    <path d="M59.0008521,-2.84217094e-14 L1.9991479,-2.84217094e-14 C0.899616557,-2.84217094e-14 -9.9475983e-14,0.898602174 -9.9475983e-14,1.99689372 L-9.9475983e-14,70.0031063 C-9.9475983e-14,71.1013978 0.899616557,72 1.9991479,72 L59.0008521,72 C60.1003834,72 61,71.1013978 61,70.0031063 L61,1.99689372 C61,0.898602174 60.1003834,-2.84217094e-14 59.0008521,-2.84217094e-14 L59.0008521,-2.84217094e-14 Z M4,68 L57,68 L57,4 L4,4 L4,68 Z" id="Fill-3" fill="#626062" mask="url(#mask-2)"></path>
                </g>
                <path d="M33,11.5 C33,12.8801427 31.8809574,14 30.4994751,14 C29.1190426,14 28,12.8801427 28,11.5 C28,10.1198573 29.1190426,9 30.4994751,9 C31.8809574,9 33,10.1198573 33,11.5" id="Fill-6" fill="#F9B625"></path>
                <path d="M48.9757585,16 L12.0242415,16 C10.9109087,16 10,16.8967797 10,17.9928439 L10,58.0071561 C10,59.1032203 10.9109087,60 12.0242415,60 L48.9757585,60 C50.0890913,60 51,59.1032203 51,58.0071561 L51,17.9928439 C51,16.8967797 50.0890913,16 48.9757585,16 L48.9757585,16 Z M13,57 L48,57 L48,19 L13,19 L13,57 Z" id="Fill-8" fill="#626062"></path>
                <path d="M30.5,28 C28.5709746,28 27,29.5695304 27,31.5005285 C27,33.4304696 28.5709746,35 30.5,35 C32.4290254,35 34,33.4304696 34,31.5005285 C34,29.5695304 32.4290254,28 30.5,28 M30.5,38 C26.9159264,38 24,35.084449 24,31.5005149 C24,27.915551 26.9159264,25 30.5,25 C34.0840736,25 37,27.915551 37,31.5005149 C37,35.084449 34.0840736,38 30.5,38" id="Fill-10" fill="#F9B625"></path>
                <path d="M36.798923,52 C36.7446003,52 36.6902775,51.9968892 36.6339428,51.9906676 C35.806024,51.8983808 35.2074679,51.1310521 35.2969998,50.2766212 L35.981064,43.7781766 C35.9438428,42.8532344 35.20445,42.1107921 34.3010829,42.1107921 L26.6989171,42.1107921 C25.79555,42.1107921 25.0551512,42.8532344 25.018936,43.7781766 L25.7030002,50.2766212 C25.7925321,51.1310521 25.193976,51.8983808 24.3660572,51.9906676 C23.5190248,52.0798437 22.7917037,51.4659807 22.7021717,50.6125867 L22,43.8497248 C22,41.1754806 24.1085271,39 26.6989171,39 L34.3010829,39 C36.8914729,39 39,41.1754806 39,43.8497248 L38.9909462,44.0177076 L38.2968223,50.6125867 C38.2133262,51.4099864 37.5594414,52 36.798923,52" id="Fill-12" fill="#F9B625"></path>
                <path d="M41.5142857,66 L18.4857143,66 C17.6656,66 17,65.328 17,64.5 C17,63.672 17.6656,63 18.4857143,63 L41.5142857,63 C42.3344,63 43,63.672 43,64.5 C43,65.328 42.3344,66 41.5142857,66" id="Fill-14" fill="#F9B625"></path>
            </g>
        </g>
    </g>
</svg>