<?xml version="1.0" encoding="UTF-8" standalone="no"?>
<svg width="70px" height="80px" viewBox="0 0 70 80" version="1.1" xmlns="http://www.w3.org/2000/svg" xmlns:xlink="http://www.w3.org/1999/xlink">
    <!-- Generator: Sketch 40.3 (33839) - http://www.bohemiancoding.com/sketch -->
    <title>Group 9</title>
    <desc>Created with Sketch.</desc>
    <defs>
        <polygon id="path-1" points="0 80 70 80 70 0 0 0"></polygon>
    </defs>
    <g id="Page-1" stroke="none" stroke-width="1" fill="none" fill-rule="evenodd">
        <g id="Artboard" transform="translate(-427.000000, -128.000000)">
            <g id="Group-9" transform="translate(427.000000, 128.000000)">
                <g id="Page-1">
                    <path d="M12.9939469,80 C11.8972761,80 11,79.0955613 11,77.9901362 L11,17.0098638 C11,15.9044387 11.8972761,15 12.9939469,15 L65.0060531,15 C66.1027239,15 67,15.9044387 67,17.0098638 L67,77.9901362 C67,79.0955613 66.1027239,80 65.0060531,80 L12.9939469,80 L12.9939469,80 Z" id="Fill-1" fill="#F0F0F0"></path>
                    <mask id="mask-2" fill="white">
                        <use xlink:href="#path-1"></use>
                    </mask>
                    <g id="Clip-4"></g>
                    <path d="M13,66 L66,66 L66,4 L13,4 L13,66 Z M68,0 L10.974,0 C9.874,0 8.974,0.90330351 8.974,2.00734113 L8.974,5.87348016 L2,5.87348016 C0.896,5.87348016 0,6.77276898 0,7.88082129 C0,8.98987727 0.896,9.88816242 2,9.88816242 L8.974,9.88816242 L8.974,23.3734802 L2,23.3734802 C0.896,23.3734802 0,24.2717653 0,25.3808213 C0,26.4888736 0.896,27.3881624 2,27.3881624 L8.974,27.3881624 L8.974,40.8734802 L2,40.8734802 C0.896,40.8734802 0,41.772769 0,42.8808213 C0,43.9898773 0.896,44.8881624 2,44.8881624 L8.974,44.8881624 L8.974,58.3734802 L2,58.3734802 C0.896,58.3734802 0,59.2717653 0,60.3808213 C0,61.4888736 0.896,62.3881624 2,62.3881624 L8.974,62.3881624 L8.974,67.9926589 C8.974,69.0966965 9.874,70 10.974,70 L68,70 C69.1,70 70,69.0966965 70,67.9926589 L70,2.00734113 C70,0.90330351 69.1,0 68,0 L68,0 Z" id="Fill-3" fill="#626062" mask="url(#mask-2)"></path>
                    <path d="M19.5,61 C18.671,61 18,60.3274956 18,59.4988742 L18,10.5011258 C18,9.67250438 18.671,9 19.5,9 C20.329,9 21,9.67250438 21,10.5011258 L21,59.4988742 C21,60.3274956 20.329,61 19.5,61" id="Fill-5" fill="#F9B625" mask="url(#mask-2)"></path>
                    <path d="M43,21 C40.2429319,21 38,23.2424242 38,26 C38,28.7575758 40.2429319,31 43,31 C45.7570681,31 48,28.7575758 48,26 C48,23.2424242 45.7570681,21 43,21 M43,34 C38.58791,34 35,30.4115607 35,26 C35,21.5884393 38.58791,18 43,18 C47.4110611,18 51,21.5884393 51,26 C51,30.4115607 47.4110611,34 43,34" id="Fill-6" fill="#F9B625" mask="url(#mask-2)"></path>
                    <path d="M50.6185772,51 C50.5649728,51 50.5103758,50.9970887 50.4557788,50.9912661 C49.6388088,50.9048975 49.0471756,50.1867762 49.1365162,49.3871385 L50.0209879,41.4111406 C49.9832664,40.0263311 48.8208461,38.9113023 47.3993382,38.9113023 L37.5996691,38.9113023 C36.1781612,38.9113023 35.0167336,40.0263311 34.9790121,41.4111406 L35.8624911,49.3881089 C35.9518317,50.1867762 35.3601985,50.9048975 34.5432286,50.9912661 C33.7272512,51.0766643 32.9906878,50.5002264 32.9023399,49.7005887 L32,41.4810118 C32,38.45908 34.511463,36 37.5996691,36 L47.3993382,36 C50.4875443,36 53,38.45908 53,41.4810118 L52.9910659,41.6391926 L52.0966675,49.7015592 C52.0142756,50.447823 51.3690381,51 50.6185772,51" id="Fill-7" fill="#F9B625" mask="url(#mask-2)"></path>
                </g>
            </g>
        </g>
    </g>
</svg>