<?xml version="1.0" encoding="UTF-8" standalone="no"?>
<svg width="68px" height="80px" viewBox="0 0 68 80" version="1.1" xmlns="http://www.w3.org/2000/svg" xmlns:xlink="http://www.w3.org/1999/xlink">
    <!-- Generator: Sketch 40.3 (33839) - http://www.bohemiancoding.com/sketch -->
    <title>Group 4</title>
    <desc>Created with Sketch.</desc>
    <defs>
        <polygon id="path-1" points="0 1 0 51 68 51 68 1 5.41094491e-20 1"></polygon>
    </defs>
    <g id="Page-1" stroke="none" stroke-width="1" fill="none" fill-rule="evenodd">
        <g id="Artboard" transform="translate(-975.000000, -128.000000)">
            <g id="Group-4" transform="translate(975.000000, 128.000000)">
                <g id="Page-1">
                    <path d="M7.99394695,80 C6.89727613,80 6,79.0924446 6,77.9832102 L6,42.0167898 C6,40.9075554 6.89727613,40 7.99394695,40 L60.0060531,40 C61.1027239,40 62,40.9075554 62,42.0167898 L62,77.9832102 C62,79.0924446 61.1027239,80 60.0060531,80 L7.99394695,80 Z" id="Fill-1" fill="#F0F0F0"></path>
                    <path d="M40.5,62 C39.671,62 39,61.322208 39,60.4870713 L39,41.5129287 C39,40.677792 39.671,40 40.5,40 C41.329,40 42,40.677792 42,41.5129287 L42,60.4870713 C42,61.322208 41.329,62 40.5,62" id="Fill-3" fill="#F9B625"></path>
                    <path d="M27.5,62 C26.671,62 26,61.3355107 26,60.516765 L26,30.483235 C26,29.6644893 26.671,29 27.5,29 C28.329,29 29,29.6644893 29,30.483235 L29,60.516765 C29,61.3355107 28.329,62 27.5,62" id="Fill-5" fill="#F9B625"></path>
                    <path d="M40.2006655,0 C37.5148451,0 35.114666,1.30321231 33.5,3.35024401 C31.8863258,1.30321231 29.4851549,0 26.7993345,0 C21.9394676,0 18,4.25301657 18,9.49949053 C18,14.7459645 21.9394676,19 26.7993345,19 L40.2006655,19 C45.0605324,19 49,14.7459645 49,9.49949053 C49,4.25301657 45.0605324,0 40.2006655,0" id="Fill-7" fill="#F9B625"></path>
                    <g id="Group-11" transform="translate(0.000000, 20.000000)">
                        <mask id="mask-2" fill="white">
                            <use xlink:href="#path-1"></use>
                        </mask>
                        <g id="Clip-10"></g>
                        <path d="M66.0037283,1 L1.99627167,1 C0.898322251,1 1.13686838e-13,1.90804528 1.13686838e-13,3.0178784 L1.13686838e-13,48.9821216 C1.13686838e-13,50.0919547 0.898322251,51 1.99627167,51 L66.0037283,51 C67.1016777,51 68,50.0919547 68,48.9821216 L68,3.0178784 C68,1.90804528 67.1016777,1 66.0037283,1 L66.0037283,1 Z M4,47 L64,47 L64,5 L4,5 L4,47 Z" id="Fill-9" fill="#626062" mask="url(#mask-2)"></path>
                    </g>
                </g>
            </g>
        </g>
    </g>
</svg>