<?xml version="1.0" encoding="UTF-8" standalone="no"?>
<svg width="77px" height="80px" viewBox="0 0 77 80" version="1.1" xmlns="http://www.w3.org/2000/svg" xmlns:xlink="http://www.w3.org/1999/xlink">
    <!-- Generator: Sketch 40.3 (33839) - http://www.bohemiancoding.com/sketch -->
    <title>Page 1</title>
    <desc>Created with Sketch.</desc>
    <defs>
        <polygon id="path-1" points="77 41 77 1 0 1 0 41 0 81 77 81 77 41"></polygon>
    </defs>
    <g id="Page-1" stroke="none" stroke-width="1" fill="none" fill-rule="evenodd">
        <g id="Artboard" transform="translate(-212.000000, -128.000000)">
            <g id="Page-1" transform="translate(212.000000, 127.000000)">
                <path d="M65,54 C65,68.9113208 52.9113208,81 38,81 C23.0876877,81 11,68.9113208 11,54 C11,39.0886792 23.0876877,27 38,27 C52.9113208,27 65,39.0886792 65,54" id="Fill-1" fill="#F0F0F0"></path>
                <path d="M39.1450006,21.5653285 C39.8191815,20.6829582 40.5903811,20.8524877 40.8596574,21.9411528 L41.8941934,26.134454 C42.1634698,27.2231192 43.2187955,28.4322932 44.2404617,28.821394 L48.1766485,30.3185639 C49.1983147,30.7076647 49.2804836,31.5165041 48.359796,32.117006 L44.813664,34.4281216 C43.8929764,35.0286236 43.1049471,36.437965 43.0613877,37.5603318 L42.8970499,41.8843545 C42.8544805,43.0067213 42.1337702,43.3386314 41.2962415,42.6206843 L38.0688851,39.8551072 C37.2313565,39.1371601 35.6889573,38.7991224 34.6405615,39.1044797 L30.603396,40.2789309 C29.5550002,40.5842882 29.0273374,39.9797011 29.4302619,38.9359715 L30.9815709,34.9152635 C31.3844955,33.8715339 31.2191677,32.2538551 30.6142859,31.3194005 L28.2838574,27.721495 C27.6789756,26.7870404 28.0729903,26.0823697 29.1599956,26.1548793 L33.345659,26.4357263 C34.4326643,26.5082359 35.8730948,25.8464582 36.5472757,24.9640879 L39.1450006,21.5653285 Z" id="Fill-3" fill="#F9B625"></path>
                <g id="Group-7" transform="translate(0.000000, 0.000000)">
                    <mask id="mask-2" fill="white">
                        <use xlink:href="#path-1"></use>
                    </mask>
                    <g id="Clip-6"></g>
                    <path d="M61.1281551,65.6036685 L56.3837032,73 L49,60.9744514 C54.1254881,59.1457583 58.6129155,56.0180151 62.0612439,52 L70,64.9305601 L61.1281551,65.6036685 Z M12,32 C12,17.1122905 24.1122905,5 39,5 C53.8877095,5 66,17.1122905 66,32 C66,46.8887151 53.8877095,59 39,59 C24.1122905,59 12,46.8887151 12,32 L12,32 Z M20.6172969,73 L15.872845,65.6036685 L7,64.9305601 L14.9387561,52 C18.3870845,56.0180151 22.875512,59.1457583 28,60.9744514 L20.6172969,73 Z M64.7824844,48.3854028 C67.7727854,43.6243822 69.5086677,37.9962616 69.5086677,31.9606844 C69.5086677,14.8615551 55.6256298,1 38.5,1 C21.3743702,1 7.49133227,14.8615551 7.49133227,31.9606844 C7.49133227,37.9962616 9.22721458,43.6243822 12.2185207,48.3854028 L0,68.6117119 L13.4025794,69.6454073 L20.5702556,81 L31.9193275,62.2168502 C34.0411848,62.6744863 36.2414432,62.9213689 38.5,62.9213689 C40.7595619,62.9213689 42.9598204,62.6744863 45.0816777,62.2158467 L56.4307495,81 L63.5984257,69.6454073 L77,68.6117119 L64.7824844,48.3854028 Z" id="Fill-5" fill="#626062" mask="url(#mask-2)"></path>
                </g>
            </g>
        </g>
    </g>
</svg>