<?xml version="1.0" encoding="UTF-8" standalone="no"?>
<svg width="62px" height="79px" viewBox="0 0 62 79" version="1.1" xmlns="http://www.w3.org/2000/svg" xmlns:xlink="http://www.w3.org/1999/xlink">
    <!-- Generator: Sketch 40.3 (33839) - http://www.bohemiancoding.com/sketch -->
    <title>Page 1</title>
    <desc>Created with Sketch.</desc>
    <defs>
        <polygon id="path-1" points="0 79 62 79 62 1.42108547e-14 0 1.42108547e-14"></polygon>
    </defs>
    <g id="Page-1" stroke="none" stroke-width="1" fill="none" fill-rule="evenodd">
        <g id="Artboard" transform="translate(-327.000000, -128.000000)">
            <g id="Page-1" transform="translate(327.000000, 128.000000)">
                <path d="M58,52 C58,66.9113208 45.9113208,79 31,79 C16.0876877,79 4,66.9113208 4,52 C4,37.0886792 16.0876877,25 31,25 C45.9113208,25 58,37.0886792 58,52 L58,52 Z" id="Fill-1" fill="#F0F0F0"></path>
                <mask id="mask-2" fill="white">
                    <use xlink:href="#path-1"></use>
                </mask>
                <g id="Clip-4"></g>
                <path d="M28,45 L34,45 L34,39 L28,39 L28,45 Z M24.9251479,17.5005107 C26.476239,16.5005107 28.3832348,16 30.6451152,16 C33.6167652,16 36.0856618,16.7109295 38.051805,18.13381 C40.0169284,19.5556691 41,21.6629213 41,24.4555669 C41,26.1675179 40.5737304,27.6098059 39.7211911,28.7824311 C39.2235366,29.4933606 38.2659596,30.40143 36.8494799,31.5076609 L35.4533959,32.5944842 C34.6916174,33.1869254 34.1868244,33.8784474 33.9379971,34.6690501 C33.7809504,35.1695608 33.6952886,35.9458631 33.6830512,37 L28.3373445,37 C28.4158678,34.7742594 28.6259433,33.2359551 28.9665511,32.3871297 C29.3071589,31.5372829 30.1862125,30.5597549 31.6016724,29.453524 L33.037528,28.3268641 C33.5086682,27.9713994 33.8900673,27.5832482 34.1776463,27.1613892 C34.702835,26.4371808 34.9649194,25.6404494 34.9649194,24.7711951 C34.9649194,23.7701736 34.6722415,22.8580184 34.0889251,22.0347293 C33.5056088,21.2114402 32.438915,20.7997957 30.8908831,20.7997957 C29.3693657,20.7997957 28.2904344,21.3074566 27.6540893,22.3217569 C27.018764,23.3360572 26.7005915,24.3891726 26.7005915,25.4831461 L21,25.4831461 C21.1580665,21.7282942 22.4664491,19.0684372 24.9251479,17.5005107 L24.9251479,17.5005107 Z" id="Fill-3" fill="#F9B625" mask="url(#mask-2)"></path>
                <path d="M31,-1.42108547e-14 C13.8791572,-1.42108547e-14 0,13.8791572 0,31 C0,48.1208428 13.8791572,62 31,62 C48.1208428,62 62,48.1208428 62,31 C62,13.8791572 48.1208428,-1.42108547e-14 31,-1.42108547e-14 M31,4 C45.8877095,4 58,16.1122905 58,31 C58,45.8877095 45.8877095,58 31,58 C16.1122905,58 4,45.8877095 4,31 C4,16.1122905 16.1122905,4 31,4" id="Fill-5" fill="#626062" mask="url(#mask-2)"></path>
            </g>
        </g>
    </g>
</svg>