<?xml version="1.0" encoding="UTF-8" standalone="no"?>
<svg width="74px" height="79px" viewBox="0 0 74 79" version="1.1" xmlns="http://www.w3.org/2000/svg" xmlns:xlink="http://www.w3.org/1999/xlink">
    <!-- Generator: Sketch 40.3 (33839) - http://www.bohemiancoding.com/sketch -->
    <title>Group 10</title>
    <desc>Created with Sketch.</desc>
    <defs></defs>
    <g id="Page-1" stroke="none" stroke-width="1" fill="none" fill-rule="evenodd">
        <g id="Artboard" transform="translate(-535.000000, -128.000000)">
            <g id="Group-10" transform="translate(535.000000, 128.000000)">
                <path d="M12,75.5523085 C19.465223,77.7604587 27.7577136,79 36.503963,79 C45.2472401,79 53.5367585,77.7614511 61,75.5542934 C59.2146872,69.88952 55.7669133,59.1891719 51.8138623,48.1811714 C42.5781876,22.46441 37.9841279,15.6831562 36.5148611,14 L36.4692871,14 C32.3834769,18.4639367 22.376016,42.1531697 12,75.5523085" id="Fill-1" fill="#F0F0F0"></path>
                <path d="M36.9994888,23 C34.7942492,23 33,24.7942492 33,26.9994888 C33,29.2047284 34.7942492,31 36.9994888,31 C39.2047284,31 41,29.2047284 41,26.9994888 C41,24.7942492 39.2047284,23 36.9994888,23 M36.9994937,34 C33.1392405,34 30,30.8597468 30,26.9994937 C30,23.1402532 33.1392405,20 36.9994937,20 C40.8597468,20 44,23.1402532 44,26.9994937 C44,30.8597468 40.8597468,34 36.9994937,34" id="Fill-3" fill="#F9B625"></path>
                <path d="M61.3912642,57.0940178 C61.4268602,56.9027166 61.4451667,56.7154428 61.4451667,56.5332032 L61.4451667,56.2532994 L61.3678726,55.9824572 C61.3383788,55.8797586 59.0988836,48.0998411 56,38.4834322 C57.1695819,38.0887476 59.7518154,37.2319196 60.3457596,37.0486732 C64.0802856,35.8918044 65.8844929,35.9240236 66.4804711,36.0760577 C68.4270623,49.0362101 70.0360002,63.2035738 69.9993872,69 C68.526731,67.280303 65.9119526,63.860039 61.3912642,57.0940178 M42.5092626,61 C44.5982322,53.706687 46.3416879,46.4983427 46.3416879,46.4983427 C46.3416879,43.6943758 39.2070226,43.4514652 36.5004964,43.4514652 L36.5004964,43.4514652 C33.7939702,43.4514652 26.659305,43.6943758 26.659305,46.4983427 C26.659305,46.4983427 28.4027606,53.706687 30.4917302,61 C22.2619445,59.5185458 17.0325705,57.4653023 16,56.3007313 C22.7514227,32.4995002 32.0783146,6.05024465 35.6506115,4 L37.3503814,4 C40.9216854,6.05024465 50.2485773,32.4995002 57,56.3007313 C55.9684223,57.4653023 50.7390483,59.5175462 42.5092626,61 M37.5,67 C35.8164708,61.8946136 33.7400845,54.4442521 32,47.4520925 C33.1553434,47.2117911 35.0034888,47 37.5,47 C39.9965112,47 41.8446566,47.2117911 43,47.4520925 C41.2599155,54.4452703 39.1845391,61.8935954 37.5,67 M4.0006124,69 C3.9639994,63.2041099 5.5739544,49.0370496 7.52156263,36.0780957 C8.11448983,35.9210419 9.92378228,35.8948662 13.6542402,37.0496145 C14.2522526,37.2348575 16.8324521,38.0895927 18,38.4842408 C14.9021333,48.1007672 12.6626381,55.8799652 12.6331443,55.9826543 L12.5548332,56.2534714 L12.5548332,56.5333494 C12.5548332,56.7165789 12.5731397,56.9038354 12.6097527,57.0961256 C8.08906414,63.8595076 5.47428568,67.2794552 4.0006124,69 M70.4877267,34.903874 L70.3919506,34.5191069 C68.8345907,30.2157115 61.743166,32.4393656 59.410618,33.1679247 C58.7850801,33.3648055 56.3427887,34.1833101 55.1136616,34.6040554 C54.460189,32.602267 53.7807771,30.5575047 53.0844047,28.5157405 C44.1063897,2.2036662 40.6055724,0 38.0285958,0 L35.9714042,0 C33.3944276,0 29.8936103,2.2036662 20.9155953,28.5157405 C20.2192229,30.5575047 19.5388133,32.602267 18.8863384,34.6040554 C17.6572113,34.1833101 15.2169152,33.3648055 14.589382,33.1679247 C12.2578317,32.4393656 5.16441165,30.2167109 3.60904711,34.5191069 L3.51227331,34.903874 C-2.13452801,72.6620204 0.335698151,73.5574784 1.97087613,74.1511191 C2.28813458,74.2650501 2.59242334,74.3769824 2.94759318,74.3769824 C4.45806265,74.3769824 6.87940307,72.3632012 14.9984259,60.1475949 C17.700111,61.9445073 22.861048,63.7773979 32.2341396,65.2555032 C34.0379235,71.0779791 35.8895954,76 37,76 L37,76 C38.1104046,76 39.9620765,71.0779791 41.7658604,65.2545039 C51.138952,63.7773979 56.299889,61.9445073 59.0005764,60.1475949 C67.1205969,72.3632012 69.5419374,74.3769824 71.0534045,74.3769824 C71.4075767,74.3769824 71.7128631,74.2650501 72.0291239,74.1511191 C73.6643018,73.5574784 76.134528,72.6620204 70.4877267,34.903874" id="Fill-5" fill="#626062"></path>
            </g>
        </g>
    </g>
</svg>