<?xml version="1.0" encoding="UTF-8" standalone="no"?>
<svg width="70px" height="71px" viewBox="0 0 70 71" version="1.1" xmlns="http://www.w3.org/2000/svg" xmlns:xlink="http://www.w3.org/1999/xlink">
    <!-- Generator: Sketch 40.3 (33839) - http://www.bohemiancoding.com/sketch -->
    <title>Page 1</title>
    <desc>Created with Sketch.</desc>
    <defs>
        <polygon id="path-1" points="69.9997 71 0 71 0 0.0004 69.9997 0.0004 69.9997 71"></polygon>
    </defs>
    <g id="Page-1" stroke="none" stroke-width="1" fill="none" fill-rule="evenodd">
        <g id="Artboard" transform="translate(-635.000000, -460.000000)">
            <g id="Page-1" transform="translate(635.000000, 460.000000)">
                <path d="M60.1414,45.8916 L9.8594,45.8916 C9.0304,45.8916 8.3594,45.2196 8.3594,44.3916 C8.3594,43.5636 9.0304,42.8916 9.8594,42.8916 L60.1414,42.8916 C60.9704,42.8916 61.6414,43.5636 61.6414,44.3916 C61.6414,45.2196 60.9704,45.8916 60.1414,45.8916" id="Fill-1" fill="#FFFFFF"></path>
                <g id="Group-5" transform="translate(0.000000, -0.000300)">
                    <mask id="mask-2" fill="white">
                        <use xlink:href="#path-1"></use>
                    </mask>
                    <g id="Clip-4"></g>
                    <path d="M52.6877,20.1234 C53.9377,20.1234 54.9537,21.1434 54.9537,22.3954 C54.9537,23.6484 53.9377,24.6684 52.6877,24.6684 C51.4377,24.6684 50.4217,23.6484 50.4217,22.3954 C50.4217,21.1434 51.4377,20.1234 52.6877,20.1234 L52.6877,20.1234 Z M17.3127,20.1234 C18.5617,20.1234 19.5777,21.1434 19.5777,22.3954 C19.5777,23.6484 18.5617,24.6684 17.3127,24.6684 C16.0627,24.6684 15.0467,23.6484 15.0467,22.3954 C15.0467,21.1434 16.0627,20.1234 17.3127,20.1234 L17.3127,20.1234 Z M65.9997,67.0004 L3.9997,67.0004 L3.9997,14.6684 L15.3127,14.6684 L15.3127,16.3354 C15.3127,16.3754 15.3217,16.4134 15.3237,16.4524 C12.8417,17.2874 11.0467,19.6334 11.0467,22.3954 C11.0467,25.8544 13.8567,28.6684 17.3127,28.6684 C20.7677,28.6684 23.5777,25.8544 23.5777,22.3954 C23.5777,19.6334 21.7827,17.2874 19.3007,16.4524 C19.3027,16.4124 19.3127,16.3754 19.3127,16.3354 L19.3127,14.6684 L50.6877,14.6684 L50.6877,16.3354 C50.6877,16.3754 50.6977,16.4134 50.6997,16.4524 C48.2177,17.2874 46.4217,19.6334 46.4217,22.3954 C46.4217,25.8544 49.2327,28.6684 52.6877,28.6684 C56.1427,28.6684 58.9537,25.8544 58.9537,22.3954 C58.9537,19.6334 57.1577,17.2874 54.6757,16.4524 C54.6777,16.4124 54.6877,16.3754 54.6877,16.3354 L54.6877,14.6684 L65.9997,14.6684 L65.9997,67.0004 Z M67.9997,10.6684 L54.6877,10.6684 L54.6877,2.0004 C54.6877,0.8954 53.7917,0.0004 52.6877,0.0004 C51.5837,0.0004 50.6877,0.8954 50.6877,2.0004 L50.6877,10.6684 L19.3127,10.6684 L19.3127,2.0004 C19.3127,0.8954 18.4167,0.0004 17.3127,0.0004 C16.2077,0.0004 15.3127,0.8954 15.3127,2.0004 L15.3127,10.6684 L1.9997,10.6684 C0.8997,10.6684 -0.0003,11.5684 -0.0003,12.6684 L-0.0003,69.0004 C-0.0003,70.1004 0.8997,71.0004 1.9997,71.0004 L67.9997,71.0004 C69.0997,71.0004 69.9997,70.1004 69.9997,69.0004 L69.9997,12.6684 C69.9997,11.5684 69.0997,10.6684 67.9997,10.6684 L67.9997,10.6684 Z" id="Fill-3" fill="#FFFFFF" mask="url(#mask-2)"></path>
                </g>
            </g>
        </g>
    </g>
</svg>