<?xml version="1.0" encoding="utf-8"?>
<!-- Generator: Adobe Illustrator 20.1.0, SVG Export Plug-In . SVG Version: 6.00 Build 0)  -->
<svg version="1.1" id="Layer_1" xmlns="http://www.w3.org/2000/svg" xmlns:xlink="http://www.w3.org/1999/xlink" x="0px" y="0px"
	 viewBox="0 0 62 73" style="enable-background:new 0 0 62 73;" xml:space="preserve">
<style type="text/css">
	.st0{fill:#FFFFFF;}
</style>
<title>Page 1</title>
<desc>Created with Sketch.</desc>
<g id="Clip-2_1_">
</g>
<g>
	<path id="Fill-4_1_" class="st0" d="M32.9,10.5c0,1.3-1.1,2.4-2.4,2.4c-1.3,0-2.4-1.1-2.4-2.4s1.1-2.4,2.4-2.4
		C31.8,8.1,32.9,9.2,32.9,10.5"/>
	<path id="Fill-8_1_" class="st0" d="M30.5,26.9c-1.8,0-3.3,1.5-3.3,3.3c0,1.8,1.5,3.3,3.3,3.3c1.8,0,3.3-1.5,3.3-3.3
		C33.8,28.3,32.3,26.9,30.5,26.9 M30.5,36.5c-3.5,0-6.3-2.8-6.3-6.3c0-3.5,2.8-6.3,6.3-6.3s6.3,2.8,6.3,6.3
		C36.8,33.7,34,36.5,30.5,36.5"/>
	<path id="Fill-10_1_" class="st0" d="M36.8,50.6c-0.1,0-0.1,0-0.2,0c-0.8-0.1-1.4-0.8-1.3-1.7l0.7-6.3c0-0.9-0.8-1.6-1.7-1.6h-7.6
		c-0.9,0-1.6,0.7-1.7,1.6l0.7,6.3c0.1,0.8-0.5,1.6-1.3,1.7c-0.8,0.1-1.6-0.5-1.7-1.3l-0.7-6.5c0-2.6,2.1-4.7,4.7-4.7h7.6
		c2.6,0,4.7,2.1,4.7,4.7l0,0.2l-0.7,6.4C38.2,50.1,37.5,50.6,36.8,50.6"/>
	<path id="Fill-12_1_" class="st0" d="M42.1,65.5H18.9c-0.8,0-1.5-0.7-1.5-1.5c0-0.8,0.7-1.5,1.5-1.5h23.3c0.8,0,1.5,0.7,1.5,1.5
		C43.6,64.8,43,65.5,42.1,65.5"/>
	<path class="st0" d="M59,0H2C0.9,0,0,0.9,0,2v68.1c0,1.1,0.9,2,2,2h57c1.1,0,2-0.9,2-2V2C61,0.9,60.1,0,59,0z M57,68.1H4V4h53V68.1
		z"/>
	<path class="st0" d="M48.8,15.2H12.3c-1.1,0-2,0.9-2,2v40.2c0,1.1,0.9,2,2,2h36.5c1.1,0,2-0.9,2-2V17.2
		C50.8,16.1,49.9,15.2,48.8,15.2z M47.8,56.3H13.3V18.2h34.5V56.3z"/>
</g>
</svg>
