<?xml version="1.0" encoding="UTF-8" standalone="no"?>
<svg width="80px" height="67px" viewBox="0 0 80 67" version="1.1" xmlns="http://www.w3.org/2000/svg" xmlns:xlink="http://www.w3.org/1999/xlink">
    <!-- Generator: Sketch 40.3 (33839) - http://www.bohemiancoding.com/sketch -->
    <title>Page 1</title>
    <desc>Created with Sketch.</desc>
    <defs></defs>
    <g id="Page-1" stroke="none" stroke-width="1" fill="none" fill-rule="evenodd">
        <g id="Artboard" transform="translate(-367.000000, -498.000000)" fill="#FFFFFF">
            <g id="Page-1" transform="translate(367.000000, 498.000000)">
                <path d="M39.6823,48.1603 L6.2883,26.1523 L39.6823,4.1443 L73.0763,26.1523 L39.6823,48.1603 Z M65.3873,45.1313 C65.3873,45.5623 64.9773,46.3243 64.6163,46.5613 L40.2513,62.6193 C40.0013,62.7833 39.3633,62.7833 39.1133,62.6193 L14.7473,46.5603 C14.3873,46.3243 13.9773,45.5623 13.9773,45.1313 L13.9773,36.0103 L38.0123,51.8503 C38.4713,52.1533 39.0773,52.3043 39.6823,52.3043 C40.2873,52.3043 40.8933,52.1533 41.3523,51.8503 L65.3873,36.0103 L65.3873,45.1313 Z M78.6753,25.0513 L41.3523,0.4543 C40.8933,0.1513 40.2873,0.0003 39.6823,0.0003 C39.0773,0.0003 38.4713,0.1513 38.0123,0.4543 L0.6893,25.0513 C-0.2297,25.6573 -0.2297,26.6473 0.6893,27.2523 L9.9773,33.3743 L9.9773,45.1313 C9.9773,46.9153 11.0583,48.9223 12.5473,49.9013 L36.9113,65.9593 C37.7013,66.4793 38.6913,66.7403 39.6823,66.7403 C40.6723,66.7403 41.6633,66.4793 42.4533,65.9593 L66.8163,49.9023 C68.3063,48.9223 69.3873,46.9153 69.3873,45.1313 L69.3873,33.3743 L78.6753,27.2523 C79.5943,26.6473 79.5943,25.6573 78.6753,25.0513 L78.6753,25.0513 Z" id="Fill-1"></path>
                <path d="M73.5192,63.3859 C71.7682,63.3859 70.3442,61.9619 70.3442,60.2109 C70.3442,58.4599 71.7682,57.0349 73.5192,57.0349 C75.2702,57.0349 76.6942,58.4599 76.6942,60.2109 C76.6942,61.9619 75.2702,63.3859 73.5192,63.3859 M75.0192,54.2269 L75.0192,36.3429 C75.0192,35.5149 74.3482,34.8429 73.5192,34.8429 C72.6902,34.8429 72.0192,35.5149 72.0192,36.3429 L72.0192,54.2269 C69.3382,54.8999 67.3442,57.3239 67.3442,60.2109 C67.3442,63.6159 70.1142,66.3859 73.5192,66.3859 C76.9242,66.3859 79.6942,63.6159 79.6942,60.2109 C79.6942,57.3239 77.7002,54.8999 75.0192,54.2269" id="Fill-4"></path>
            </g>
        </g>
    </g>
</svg>