<?xml version="1.0" encoding="UTF-8" standalone="no"?>
<svg width="60px" height="78px" viewBox="0 0 60 78" version="1.1" xmlns="http://www.w3.org/2000/svg" xmlns:xlink="http://www.w3.org/1999/xlink">
    <!-- Generator: Sketch 40.3 (33839) - http://www.bohemiancoding.com/sketch -->
    <title>Page 1</title>
    <desc>Created with Sketch.</desc>
    <defs>
        <polygon id="path-1" points="59.6785 0.967 0 0.967 0 78.9997 59.6785 78.9997 59.6785 0.967"></polygon>
    </defs>
    <g id="Page-1" stroke="none" stroke-width="1" fill="none" fill-rule="evenodd">
        <g id="Artboard" transform="translate(-640.000000, -457.000000)">
            <g id="Page-1" transform="translate(640.000000, 456.000000)">
                <g id="Group-3" transform="translate(0.000000, 0.033300)">
                    <mask id="mask-2" fill="white">
                        <use xlink:href="#path-1"></use>
                    </mask>
                    <g id="Clip-2"></g>
                    <path d="M29.8395,0.9667 C16.0585,0.9667 0.0005,6.9657 -0.0005,27.7347 C-0.0005,42.1447 17.0995,61.7277 17.0995,61.7277 C17.8235,62.5557 18.4815,64.1317 18.5625,65.2287 L19.4305,77.0057 C19.5115,78.1027 20.4775,78.9997 21.5775,78.9997 L38.1015,78.9997 C39.2015,78.9997 40.1675,78.1027 40.2485,77.0057 L41.1165,65.2287 C41.1975,64.1317 41.8515,62.5527 42.5705,61.7197 C42.5705,61.7197 59.6785,41.8947 59.6785,27.7347 C59.6785,6.9657 43.6205,0.9667 29.8395,0.9667 M29.8395,4.9667 C36.9125,4.9667 43.2215,6.6897 47.6035,9.8177 C52.9615,13.6437 55.6785,19.6717 55.6785,27.7347 C55.6785,38.1057 44.0295,53.8977 39.5425,59.1067 C38.2645,60.5877 37.2715,62.9837 37.1275,64.9347 L36.3855,74.9997 L23.2935,74.9997 L22.5515,64.9347 C22.4075,62.9767 21.4045,60.5757 20.1135,59.0977 C15.6315,53.9567 3.9995,38.2987 3.9995,27.7347 C4.0005,19.6717 6.7175,13.6437 12.0765,9.8177 C16.4585,6.6897 22.7665,4.9667 29.8395,4.9667" id="Fill-1" fill="#FFFFFF" mask="url(#mask-2)"></path>
                </g>
                <path d="M26.664,40.0164 C26.664,38.2654 28.089,36.8414 29.84,36.8414 C31.591,36.8414 33.015,38.2654 33.015,40.0164 C33.015,41.7674 31.591,43.1924 29.84,43.1924 C28.089,43.1924 26.664,41.7674 26.664,40.0164 M33.586,61.1784 L31.34,61.1784 L31.34,46.0004 C34.021,45.3274 36.015,42.9034 36.015,40.0164 C36.015,36.6114 33.245,33.8414 29.84,33.8414 C26.435,33.8414 23.664,36.6114 23.664,40.0164 C23.664,42.9034 25.658,45.3274 28.34,46.0004 L28.34,61.1784 L26.094,61.1784 C25.266,61.1784 24.594,61.8504 24.594,62.6784 C24.594,63.5064 25.266,64.1784 26.094,64.1784 L33.586,64.1784 C34.414,64.1784 35.086,63.5064 35.086,62.6784 C35.086,61.8504 34.414,61.1784 33.586,61.1784" id="Fill-4" fill="#FFFFFF"></path>
            </g>
        </g>
    </g>
</svg>