<?xml version="1.0" encoding="UTF-8" standalone="no"?>
<svg width="74px" height="64px" viewBox="0 0 74 64" version="1.1" xmlns="http://www.w3.org/2000/svg" xmlns:xlink="http://www.w3.org/1999/xlink">
    <!-- Generator: Sketch 40.3 (33839) - http://www.bohemiancoding.com/sketch -->
    <title>Page 1</title>
    <desc>Created with Sketch.</desc>
    <defs>
        <polygon id="path-1" points="74 33 74 1 0 1 0 33 0 65 74 65 74 33"></polygon>
    </defs>
    <g id="Page-1" stroke="none" stroke-width="1" fill="none" fill-rule="evenodd">
        <g id="Artboard" transform="translate(-1028.000000, -1291.000000)">
            <g id="Page-1" transform="translate(1028.000000, 1290.000000)">
                <g id="Group-3" transform="translate(0.000000, 0.000000)">
                    <mask id="mask-2" fill="white">
                        <use xlink:href="#path-1"></use>
                    </mask>
                    <g id="Clip-2"></g>
                    <path d="M70,5 L72,5 L70,5 Z M4,5 L4,51.9262027 L42.216,51.9262027 C44.045,51.9262027 46.035,53.0736158 46.948,54.6540527 L50.042,60 L53.137,54.6530549 C54.05,53.0736158 56.04,51.9262027 57.869,51.9262027 L70,51.9262027 L70,5.0059865 L4,5 Z M50.042,65 C48.935,65 47.939,64.3770318 47.31,63.2898325 L43.483,56.6727919 C43.29,56.3373475 42.603,55.941004 42.216,55.941004 L4,55.941004 C1.794,55.941004 0,54.1499704 0,51.947618 L0,4.99338595 C0,2.7910336 1.794,1 4,1 L70,1 C72.206,1 74,2.7910336 74,4.99338595 L74,51.947618 C74,54.1499704 72.206,55.941004 70,55.941004 L57.869,55.941004 C57.482,55.941004 56.795,56.3373475 56.602,56.6717936 L52.774,63.2898325 C52.145,64.3770318 51.149,65 50.042,65 L50.042,65 Z" id="Fill-1" fill="#FFFFFF" mask="url(#mask-2)"></path>
                </g>
                <path d="M13.5079893,24 C13.2326591,24 13,24.2240948 13,24.48929 L13,32.51071 C13,32.7768838 13.2326591,33 13.5079893,33 L23.4920107,33 C23.7683569,33 24,32.7768838 24,32.51071 L24,24.48929 C24,24.2240948 23.7683569,24 23.4920107,24 L13.5079893,24 Z M23.4640162,36 L13.5359838,36 C11.5861413,36 10,34.450352 10,32.5453708 L10,24.4546292 C10,22.549648 11.5861413,21 13.5359838,21 L23.4640162,21 C25.4138587,21 27,22.549648 27,24.4546292 L27,32.5453708 C27,34.450352 25.4138587,36 23.4640162,36 L23.4640162,36 Z" id="Fill-4" fill="#FFFFFF"></path>
                <path d="M62.502745,25 L41.497255,25 C40.6707703,25 40,24.328 40,23.5 C40,22.672 40.6707703,22 41.497255,22 L62.502745,22 C63.3292297,22 64,22.672 64,23.5 C64,24.328 63.3292297,25 62.502745,25" id="Fill-6" fill="#FFFFFF"></path>
                <path d="M62.502745,36 L41.497255,36 C40.6707703,36 40,35.328 40,34.5 C40,33.672 40.6707703,33 41.497255,33 L62.502745,33 C63.3292297,33 64,33.672 64,34.5 C64,35.328 63.3292297,36 62.502745,36" id="Fill-8" fill="#FFFFFF"></path>
            </g>
        </g>
    </g>
</svg>