<?xml version="1.0" encoding="UTF-8" standalone="no"?>
<svg width="62px" height="62px" viewBox="0 0 62 62" version="1.1" xmlns="http://www.w3.org/2000/svg" xmlns:xlink="http://www.w3.org/1999/xlink">
    <!-- Generator: Sketch 40.3 (33839) - http://www.bohemiancoding.com/sketch -->
    <title>Page 1</title>
    <desc>Created with Sketch.</desc>
    <defs></defs>
    <g id="Page-1" stroke="none" stroke-width="1" fill="none" fill-rule="evenodd">
        <g id="Artboard" transform="translate(-1034.000000, -1292.000000)" fill="#FFFFFF">
            <g id="Page-1" transform="translate(1034.000000, 1292.000000)">
                <path d="M28.103,45.25 L33.886,45.25 L33.886,39.66 L28.103,39.66 L28.103,45.25 Z M24.893,17.92 C26.414,16.941 28.284,16.451 30.502,16.451 C33.416,16.451 35.837,17.147 37.765,18.54 C39.692,19.932 40.656,21.995 40.656,24.729 C40.656,26.405 40.238,27.817 39.402,28.965 C38.914,29.661 37.975,30.55 36.586,31.633 L35.217,32.697 C34.47,33.277 33.975,33.954 33.731,34.728 C33.577,35.218 33.493,35.978 33.481,37.01 L28.239,37.01 C28.316,34.831 28.522,33.325 28.856,32.494 C29.19,31.662 30.052,30.705 31.44,29.622 L32.848,28.519 C33.31,28.171 33.684,27.791 33.966,27.378 C34.481,26.669 34.738,25.889 34.738,25.038 C34.738,24.058 34.451,23.165 33.879,22.359 C33.307,21.553 32.261,21.15 30.743,21.15 C29.251,21.15 28.193,21.647 27.569,22.64 C26.946,23.633 26.634,24.664 26.634,25.735 L21.044,25.735 C21.199,22.059 22.482,19.455 24.893,17.92 L24.893,17.92 Z" id="Fill-1"></path>
                <path d="M30.85,0 C13.812,0 0,13.812 0,30.85 C0,47.888 13.812,61.7 30.85,61.7 C47.888,61.7 61.7,47.888 61.7,30.85 C61.7,13.812 47.888,0 30.85,0 M30.85,4 C45.655,4 57.7,16.045 57.7,30.85 C57.7,45.655 45.655,57.7 30.85,57.7 C16.045,57.7 4,45.655 4,30.85 C4,16.045 16.045,4 30.85,4" id="Fill-3"></path>
            </g>
        </g>
    </g>
</svg>