<?xml version="1.0" encoding="utf-8"?>
<!-- Generator: Adobe Illustrator 20.1.0, SVG Export Plug-In . SVG Version: 6.00 Build 0)  -->
<svg version="1.1" id="Layer_1" xmlns="http://www.w3.org/2000/svg" xmlns:xlink="http://www.w3.org/1999/xlink" x="0px" y="0px"
	 viewBox="0 0 69 71" style="enable-background:new 0 0 69 71;" xml:space="preserve">
<style type="text/css">
	.st0{fill:#FFFFFF;}
	.st1{filter:url(#Adobe_OpacityMaskFilter);}
	.st2{mask:url(#mask-2_2_);fill:#FFFFFF;}
</style>
<title>Page 1</title>
<desc>Created with Sketch.</desc>
<g id="Clip-9_1_">
</g>
<g>
	<path id="Fill-1_1_" class="st0" d="M40.9,62c-0.8,0-1.5-0.7-1.5-1.5V41.7c0-0.8,0.7-1.5,1.5-1.5c0.8,0,1.5,0.7,1.5,1.5v18.8
		C42.4,61.3,41.7,62,40.9,62"/>
	<path id="Fill-3_1_" class="st0" d="M28.1,62c-0.8,0-1.5-0.7-1.5-1.5V30.1c0-0.8,0.7-1.5,1.5-1.5s1.5,0.7,1.5,1.5v30.4
		C29.6,61.3,29,62,28.1,62"/>
	<g id="Group-7_1_" transform="translate(18.000000, 0.077300)">
		<g id="Clip-6_1_">
		</g>
		<defs>
			<filter id="Adobe_OpacityMaskFilter" filterUnits="userSpaceOnUse" x="0.9" y="-0.1" width="31.3" height="18.6">
				<feColorMatrix  type="matrix" values="1 0 0 0 0  0 1 0 0 0  0 0 1 0 0  0 0 0 1 0"/>
			</filter>
		</defs>
		<mask maskUnits="userSpaceOnUse" x="0.9" y="-0.1" width="31.3" height="18.6" id="mask-2_2_">
			<g class="st1">
				<polygon id="path-1_2_" class="st0" points="32.1,-0.1 0.9,-0.1 0.9,18.6 32.1,18.6 				"/>
			</g>
		</mask>
		<path id="Fill-5_1_" class="st2" d="M23.3-0.1c-2.7,0-5.1,1.3-6.8,3.3c-1.6-2-4-3.3-6.8-3.3c-4.9,0-8.9,4.2-8.9,9.3s4,9.3,8.9,9.3
			h13.5c4.9,0,8.9-4.2,8.9-9.3S28.2-0.1,23.3-0.1"/>
	</g>
	<path class="st0" d="M66.6,20.5H2.4c-1.1,0-2,0.9-2,2v45.6c0,1.1,0.9,2,2,2h64.1c1.1,0,2-0.9,2-2V22.5
		C68.6,21.4,67.7,20.5,66.6,20.5z M64.6,66.1H4.4V24.5h60.1V66.1z"/>
</g>
</svg>
