<?xml version="1.0" encoding="UTF-8" standalone="no"?>
<svg width="75px" height="77px" viewBox="0 0 75 77" version="1.1" xmlns="http://www.w3.org/2000/svg" xmlns:xlink="http://www.w3.org/1999/xlink">
    <!-- Generator: Sketch 40.3 (33839) - http://www.bohemiancoding.com/sketch -->
    <title>Page 1</title>
    <desc>Created with Sketch.</desc>
    <defs></defs>
    <g id="Page-1" stroke="none" stroke-width="1" fill="none" fill-rule="evenodd">
        <g id="Artboard" transform="translate(-340.000000, -537.000000)" fill="#FFFFFF">
            <g id="Page-1" transform="translate(340.000000, 536.000000)">
                <path d="M37.0862,23.8037 C34.9292,23.8037 33.1742,25.5587 33.1742,27.7157 C33.1742,29.8727 34.9292,31.6277 37.0862,31.6277 C39.2432,31.6277 40.9992,29.8727 40.9992,27.7157 C40.9992,25.5587 39.2432,23.8037 37.0862,23.8037 M37.0862,34.6277 C33.2742,34.6277 30.1742,31.5277 30.1742,27.7157 C30.1742,23.9047 33.2742,20.8037 37.0862,20.8037 C40.8982,20.8037 43.9992,23.9047 43.9992,27.7157 C43.9992,31.5277 40.8982,34.6277 37.0862,34.6277" id="Fill-1"></path>
                <g id="Group-5" transform="translate(0.000000, 0.046400)">
                    <path d="M61.772,57.8716 C61.807,57.6816 61.825,57.4956 61.825,57.3136 L61.825,57.0356 L61.749,56.7666 C61.72,56.6646 59.518,48.9376 56.472,39.3856 C57.631,38.9906 60.178,38.1366 60.744,37.9606 C64.413,36.8136 66.192,36.8416 66.775,36.9946 C68.689,49.8666 70.272,63.9386 70.236,69.6956 C68.788,67.9876 66.217,64.5896 61.772,57.8716 M43.139,61.9746 C45.243,54.6796 46.998,47.4676 46.998,47.4676 C46.998,44.6636 39.812,44.4206 37.087,44.4206 L37.087,44.4206 C34.361,44.4206 27.175,44.6636 27.175,47.4676 C27.175,47.4676 28.93,54.6796 31.034,61.9746 C22.746,60.4936 17.48,58.4396 16.439,57.2746 C23.239,33.4636 32.633,7.0046 36.231,4.9536 L37.942,4.9536 C41.54,7.0046 50.934,33.4636 57.734,57.2746 C56.694,58.4406 51.427,60.4936 43.139,61.9746 M37.087,68.0626 C35.419,63.0476 33.364,55.7316 31.641,48.8646 C32.785,48.6286 34.615,48.4206 37.087,48.4206 C39.559,48.4206 41.388,48.6286 42.533,48.8646 C40.81,55.7316 38.754,63.0476 37.087,68.0626 M3.937,69.6956 C3.901,63.9386 5.484,49.8666 7.398,36.9946 C7.983,36.8416 9.76,36.8136 13.429,37.9606 C13.998,38.1376 16.545,38.9906 17.702,39.3856 C14.655,48.9366 12.454,56.6646 12.424,56.7666 L12.348,57.0356 L12.348,57.3136 C12.348,57.4956 12.366,57.6816 12.401,57.8716 C7.956,64.5896 5.385,67.9886 3.937,69.6956 M70.653,35.8786 L70.555,35.4936 C68.997,31.1916 61.887,33.4116 59.549,34.1426 C58.942,34.3326 56.482,35.1556 55.243,35.5786 C54.589,33.5756 53.907,31.5296 53.209,29.4866 C44.21,3.1586 40.7,0.9536 38.118,0.9536 L36.056,0.9536 C33.473,0.9536 29.964,3.1586 20.964,29.4866 C20.266,31.5296 19.585,33.5756 18.93,35.5786 C17.693,35.1566 15.234,34.3336 14.623,34.1416 C12.286,33.4126 5.177,31.1896 3.618,35.4936 L3.521,35.8786 C-2.14,73.6596 0.337,74.5566 1.975,75.1486 C2.293,75.2646 2.598,75.3756 2.954,75.3756 C4.469,75.3756 6.897,73.3596 15.033,61.1396 C17.74,62.9366 22.914,64.7706 32.31,66.2486 C34.117,72.0746 35.974,76.9996 37.087,76.9996 L37.087,76.9996 C38.2,76.9996 40.056,72.0746 41.864,66.2486 C51.259,64.7706 56.433,62.9366 59.14,61.1386 C67.277,73.3606 69.704,75.3756 71.219,75.3756 C71.574,75.3756 71.88,75.2646 72.198,75.1496 C73.836,74.5566 76.313,73.6596 70.653,35.8786" id="Fill-3"></path>
                </g>
            </g>
        </g>
    </g>
</svg>