<?xml version="1.0" encoding="UTF-8" standalone="no"?>
<svg width="77px" height="80px" viewBox="0 0 77 80" version="1.1" xmlns="http://www.w3.org/2000/svg" xmlns:xlink="http://www.w3.org/1999/xlink">
    <!-- Generator: Sketch 40.3 (33839) - http://www.bohemiancoding.com/sketch -->
    <title>Page 1</title>
    <desc>Created with Sketch.</desc>
    <defs>
        <polygon id="path-1" points="77 40 77 5.68434189e-14 0 5.68434189e-14 0 40 0 80 77 80"></polygon>
    </defs>
    <g id="Page-1" stroke="none" stroke-width="1" fill="none" fill-rule="evenodd">
        <g id="Artboard" transform="translate(-301.000000, -298.000000)">
            <g id="Page-1" transform="translate(301.000000, 297.000000)">
                <path d="M48.1765035,30.319104 L44.240345,28.8208913 C43.2186862,28.4317849 42.163368,27.2236147 41.8950836,26.1349339 L40.859565,21.9405511 C40.5912806,20.8518703 39.8190965,20.6833597 39.1449205,21.5657426 L36.5482043,24.964551 C35.8740282,25.8459127 34.4326181,26.5087211 33.3466105,26.4362105 L29.1599872,26.1553595 C28.0729897,26.0828488 27.6789779,26.7875296 28.2838554,27.7209764 L30.6152571,31.319955 C31.2201346,32.2534018 31.3854611,33.8721251 30.9825395,34.9158698 L29.4302516,38.9366356 C29.02733,39.9803802 29.554989,40.5839547 30.6033773,40.2796142 L34.6405138,39.1051462 C35.6889021,38.7997845 37.2322801,39.137827 38.0698028,39.8557845 L41.296146,42.6203801 C42.1336686,43.3383375 42.8543737,43.0074439 42.8969428,41.885061 L43.0622694,37.560976 C43.1048385,36.4375718 43.8928622,35.0282102 44.8135431,34.4287208 L48.3606397,32.1165507 C49.2803307,31.5170614 49.1981624,30.7082103 48.1765035,30.319104" id="Fill-1" fill="#FFFFFF"></path>
                <g id="Group-5" transform="translate(0.000000, 1.000000)">
                    <mask id="mask-2" fill="white">
                        <use xlink:href="#path-1"></use>
                    </mask>
                    <g id="Clip-4"></g>
                    <path d="M61.1277325,64.6036685 L56.3830547,72 L49,59.9744514 C54.1247321,58.1457583 58.6133733,55.0180151 62.061866,51 L70,63.9305601 L61.1277325,64.6036685 Z M12,31 C12,16.1122905 24.1122905,4 39,4 C53.8887151,4 66,16.1122905 66,31 C66,45.8887151 53.8887151,58 39,58 C24.1122905,58 12,45.8887151 12,31 L12,31 Z M20.6166484,72 L15.8724225,64.6036685 L7,63.9305601 L14.938378,51 C18.3865422,55.0180151 22.8747559,58.1457583 28,59.9744514 L20.6166484,72 Z M64.7824844,47.3854028 C67.7737906,42.6243822 69.5086677,36.9962616 69.5086677,30.9606844 C69.5086677,13.8615551 55.6256298,1.42108547e-14 38.5,1.42108547e-14 C21.3743702,1.42108547e-14 7.49133227,13.8615551 7.49133227,30.9606844 C7.49133227,36.9962616 9.22721458,42.6243822 12.2185207,47.3864064 L0,67.6117119 L13.4035846,68.6454073 L20.5702556,80 L31.9193275,61.2168502 C34.0411848,61.6744863 36.2414432,61.9213689 38.5,61.9213689 C40.7595619,61.9213689 42.9598204,61.6744863 45.0816777,61.2168502 L56.4307495,80 L63.5984257,68.6454073 L77,67.6117119 L64.7824844,47.3854028 Z" id="Fill-3" fill="#FFFFFF" mask="url(#mask-2)"></path>
                </g>
            </g>
        </g>
    </g>
</svg>