<?xml version="1.0" encoding="UTF-8" standalone="no"?>
<svg width="70px" height="80px" viewBox="0 0 70 80" version="1.1" xmlns="http://www.w3.org/2000/svg" xmlns:xlink="http://www.w3.org/1999/xlink">
    <!-- Generator: Sketch 40.3 (33839) - http://www.bohemiancoding.com/sketch -->
    <title>Group</title>
    <desc>Created with Sketch.</desc>
    <defs>
        <polygon id="path-1" points="34.99985 0 0 0 0 71 69.9997 71 69.9997 0"></polygon>
    </defs>
    <g id="Page-1" stroke="none" stroke-width="1" fill="none" fill-rule="evenodd">
        <g id="Artboard" transform="translate(-749.000000, -128.000000)">
            <g id="Group" transform="translate(749.000000, 128.000000)">
                <path d="M8.99394695,80 C7.89727613,80 7,79.1035857 7,78.0079681 L7,36.9920319 C7,35.8964143 7.89727613,35 8.99394695,35 L61.0060531,35 C62.1027239,35 63,35.8964143 63,36.9920319 L63,78.0079681 C63,79.1035857 62.1027239,80 61.0060531,80 L8.99394695,80 Z" id="Fill-1" fill="#F0F0F0"></path>
                <path d="M59.5079389,46 L9.49206111,46 C8.66744867,46 8,45.328 8,44.5 C8,43.672 8.66744867,43 9.49206111,43 L59.5079389,43 C60.3325513,43 61,43.672 61,44.5 C61,45.328 60.3325513,46 59.5079389,46" id="Fill-3" fill="#F9B625"></path>
                <g id="Group-7">
                    <mask id="mask-2" fill="white">
                        <use xlink:href="#path-1"></use>
                    </mask>
                    <g id="Clip-6"></g>
                    <path d="M52.5,20 C53.8790821,20 55,21.1221122 55,22.4994499 C55,23.8778878 53.8790821,25 52.5,25 C51.1209179,25 50,23.8778878 50,22.4994499 C50,21.1221122 51.1209179,20 52.5,20 L52.5,20 Z M17.5005518,20 C18.8788347,20 20,21.1221122 20,22.4994499 C20,23.8778878 18.8788347,25 17.5005518,25 C16.1211653,25 15,23.8778878 15,22.4994499 C15,21.1221122 16.1211653,20 17.5005518,20 L17.5005518,20 Z M66,67 L4,67 L4,15 L15.313,15 L15.313,16.6564244 C15.313,16.6961706 15.322,16.7339295 15.324,16.7726821 C12.842,17.6023848 11.047,19.9335015 11.047,22.6779791 C11.047,26.1150348 13.857,28.9111825 17.313,28.9111825 C20.768,28.9111825 23.578,26.1150348 23.578,22.6779791 C23.578,19.9335015 21.783,17.6023848 19.301,16.7726821 C19.303,16.7329359 19.313,16.6961706 19.313,16.6564244 L19.313,15 L50.688,15 L50.688,16.6564244 C50.688,16.6961706 50.698,16.7339295 50.7,16.7726821 C48.218,17.6023848 46.422,19.9335015 46.422,22.6779791 C46.422,26.1150348 49.233,28.9111825 52.688,28.9111825 C56.143,28.9111825 58.954,26.1150348 58.954,22.6779791 C58.954,19.9335015 57.158,17.6023848 54.676,16.7726821 C54.678,16.7329359 54.688,16.6961706 54.688,16.6564244 L54.688,15 L66,15 L66,67 Z M67.9997,10.668 L54.6877,10.668 L54.6877,2 C54.6877,0.895 53.7917,0 52.6877,0 C51.5837,0 50.6877,0.895 50.6877,2 L50.6877,10.668 L19.3127,10.668 L19.3127,2 C19.3127,0.895 18.4167,0 17.3127,0 C16.2077,0 15.3127,0.895 15.3127,2 L15.3127,10.668 L1.9997,10.668 C0.8997,10.668 -0.0003,11.568 -0.0003,12.668 L-0.0003,69 C-0.0003,70.1 0.8997,71 1.9997,71 L67.9997,71 C69.0997,71 69.9997,70.1 69.9997,69 L69.9997,12.668 C69.9997,11.568 69.0997,10.668 67.9997,10.668 L67.9997,10.668 Z" id="Fill-5" fill="#626062" mask="url(#mask-2)"></path>
                </g>
            </g>
        </g>
    </g>
</svg>