<?xml version="1.0" encoding="UTF-8" standalone="no"?>
<svg width="60px" height="80px" viewBox="0 0 60 80" version="1.1" xmlns="http://www.w3.org/2000/svg" xmlns:xlink="http://www.w3.org/1999/xlink">
    <!-- Generator: Sketch 40.3 (33839) - http://www.bohemiancoding.com/sketch -->
    <title>Group 6</title>
    <desc>Created with Sketch.</desc>
    <defs>
        <polygon id="path-1" points="60 1 0 1 0 79 60 79"></polygon>
    </defs>
    <g id="Page-1" stroke="none" stroke-width="1" fill="none" fill-rule="evenodd">
        <g id="Artboard" transform="translate(-1082.000000, -128.000000)">
            <g id="Group-6" transform="translate(1082.000000, 127.000000)">
                <g id="Page-1">
                    <path d="M57,54 C57,68.9113208 44.9113208,81 30,81 C15.0876877,81 3,68.9113208 3,54 C3,39.0886792 15.0876877,27 30,27 C44.9113208,27 57,39.0886792 57,54" id="Fill-1" fill="#F0F0F0"></path>
                    <g id="Group-5" transform="translate(0.000000, -0.000000)">
                        <mask id="mask-2" fill="white">
                            <use xlink:href="#path-1"></use>
                        </mask>
                        <g id="Clip-4"></g>
                        <path d="M30.0005027,1 C16.1453778,1 0.00100537878,6.99646303 1.03028697e-13,27.7566799 C1.03028697e-13,42.1605859 17.1919771,61.7353043 17.1919771,61.7353043 C17.9198713,62.5629541 18.5814105,64.1382876 18.6628462,65.2348237 L19.535515,77.0068433 C19.6169507,78.1033793 20.5881466,79 21.6940632,79 L38.3069421,79 C39.4128588,79 40.3840547,78.1033793 40.4654904,77.0068433 L41.3381592,65.2348237 C41.4195948,64.1382876 42.0771126,62.5599554 42.7999799,61.7273077 C42.7999799,61.7273077 60,41.9106916 60,27.7566799 C60,6.99646303 43.8556276,1 30.0005027,1 M30.0005031,5 C37.1174365,5 43.4656243,6.72218811 47.8748428,9.84871418 C53.2661236,13.6729113 56,19.6980709 56,27.7572716 C56,38.1233847 44.2786432,53.9079434 39.7637725,59.1144889 C38.4778343,60.594791 37.4786664,62.989662 37.3337719,64.9397427 L36.5871631,75 L23.4138431,75 L22.6672343,64.9397427 C22.5223398,62.9826653 21.5131098,60.5827967 20.2140908,59.1054931 C15.7042512,53.9669156 4,38.3162937 4,27.7572716 C4.00100621,19.6980709 6.73488264,13.6729113 12.1271696,9.84871418 C16.5363881,6.72218811 22.8835697,5 30.0005031,5" id="Fill-3" fill="#626062" mask="url(#mask-2)"></path>
                    </g>
                    <path d="M27,40.9995276 C27,39.3453 28.3453,38 29.9995276,38 C31.6537553,38 33,39.3453 33,40.9995276 C33,42.6537553 31.6537553,44 29.9995276,44 C28.3453,44 27,42.6537553 27,40.9995276 M33.6390576,62.0333256 L31.4568861,62.0333256 L31.4568861,47.0239312 C34.062667,46.3584072 36,43.9613343 36,41.1064047 C36,37.7392293 33.3087199,35 29.9995142,35 C26.6912801,35 24,37.7392293 24,41.1064047 C24,43.9613343 25.937333,46.3584072 28.5421423,47.0239312 L28.5421423,62.0333256 L26.3599709,62.0333256 C25.5555016,62.0333256 24.902599,62.6978607 24.902599,63.5166628 C24.902599,64.3354649 25.5555016,65 26.3599709,65 L33.6390576,65 C34.4444984,65 35.0964294,64.3354649 35.0964294,63.5166628 C35.0964294,62.6978607 34.4444984,62.0333256 33.6390576,62.0333256" id="Fill-6" fill="#F9B625"></path>
                </g>
            </g>
        </g>
    </g>
</svg>