<?xml version="1.0" encoding="UTF-8" standalone="no"?>
<svg width="79px" height="80px" viewBox="0 0 79 80" version="1.1" xmlns="http://www.w3.org/2000/svg" xmlns:xlink="http://www.w3.org/1999/xlink">
    <!-- Generator: Sketch 40.3 (33839) - http://www.bohemiancoding.com/sketch -->
    <title>Group 2</title>
    <desc>Created with Sketch.</desc>
    <defs>
        <polygon id="path-1" points="12 33 12 1 -2.4158453e-13 1 -2.4158453e-13 33 12 33"></polygon>
    </defs>
    <g id="Page-1" stroke="none" stroke-width="1" fill="none" fill-rule="evenodd">
        <g id="Artboard" transform="translate(-857.000000, -128.000000)">
            <g id="Group-2" transform="translate(857.000000, 128.000000)">
                <g id="Group-3" transform="translate(0.000000, 27.000000)" fill="#F0F0F0">
                    <path d="M78.3146578,25.9059068 C79.2284474,26.5073846 79.2284474,27.4926154 78.3146578,28.0940932 L41.1628383,52.5488916 C40.2480533,53.1503695 38.7519467,53.1503695 37.8381571,52.5488916 L0.685342221,28.0940932 C-0.228447407,27.4926154 -0.228447407,26.5073846 0.685342221,25.9059068 L37.8381571,1.45110841 C38.7519467,0.849630529 40.2480533,0.849630529 41.1628383,1.45110841 L78.3146578,25.9059068 Z" id="Fill-1"></path>
                </g>
                <path d="M39,48 L6,26 L39,4 L72,26 L39,48 Z M65,45.213452 C65,45.648773 64.5932619,46.4184124 64.236126,46.6577884 L40.0649692,62.8757669 C39.8169581,63.041411 39.1840339,63.041411 38.9360229,62.8757669 L14.7648661,46.6577884 C14.4077302,46.4184124 14,45.648773 14,45.213452 L14,36 L37.8437822,51.9988029 C38.2991305,52.3048406 38.9003093,52.4573545 39.500496,52.4573545 C40.1006828,52.4573545 40.7018615,52.3048406 41.1572098,51.9988029 L65,36 L65,45.213452 Z M78.3139155,25.1485915 L41.1623301,0.455768654 C40.7054382,0.151588253 40.1022214,0 39.5,0 C38.8977786,0 38.2945618,0.151588253 37.8376699,0.455768654 L0.686084458,25.1485915 C-0.228694819,25.7569524 -0.228694819,26.7508091 0.686084458,27.358166 L9.93142715,33.5040156 L9.93142715,45.3078214 C9.93142715,47.0977675 11.0074624,49.1115823 12.4896238,50.096404 L36.7417265,66.2159574 C37.5280982,66.7379832 38.5145468,67 39.5,67 C40.4854532,67 41.4719018,66.7379832 42.2572781,66.2159574 L66.5103762,50.096404 C67.9925376,49.1115823 69.0675774,47.0977675 69.0675774,45.3078214 L69.0675774,33.5040156 L78.3139155,27.358166 C79.2286948,26.7508091 79.2286948,25.7569524 78.3139155,25.1485915 L78.3139155,25.1485915 Z" id="Fill-4" fill="#626062"></path>
                <g id="Group-8" transform="translate(67.000000, 34.000000)">
                    <mask id="mask-2" fill="white">
                        <use xlink:href="#path-1"></use>
                    </mask>
                    <g id="Clip-7"></g>
                    <path d="M6,30 C4.34551181,30 3,28.6547 3,27.0004724 C3,25.3462447 4.34551181,24 6,24 C7.65448819,24 9,25.3462447 9,27.0004724 C9,28.6547 7.65448819,30 6,30 M7.45748988,20.6648385 L7.45748988,2.52173224 C7.45748988,1.68173604 6.80550607,1 6,1 C5.19449393,1 4.54251012,1.68173604 4.54251012,2.52173224 L4.54251012,20.6648385 C1.93748988,21.347589 -2.4158453e-13,23.8067083 -2.4158453e-13,26.7355356 C-2.4158453e-13,30.1898678 2.69149798,33 6,33 C9.30850202,33 12,30.1898678 12,26.7355356 C12,23.8067083 10.0625101,21.347589 7.45748988,20.6648385" id="Fill-6" fill="#F9B625" mask="url(#mask-2)"></path>
                </g>
            </g>
        </g>
    </g>
</svg>